<?xml version="1.0" standalone="no"?>
<!DOCTYPE svg PUBLIC "-//W3C//DTD SVG 20010904//EN"
 "http://www.w3.org/TR/2001/REC-SVG-20010904/DTD/svg10.dtd">
<svg version="1.0" xmlns="http://www.w3.org/2000/svg"
 width="500.000000pt" height="430.000000pt" viewBox="0 0 500.000000 430.000000"
 preserveAspectRatio="xMidYMid meet">

<g transform="translate(0.000000,430.000000) scale(0.100000,-0.100000)"
fill="#000000" stroke="none">
<path d="M2410 4294 c-140 -16 -250 -49 -365 -108 -106 -54 -228 -173 -273
-266 -140 -288 36 -593 413 -719 488 -162 1045 83 1091 481 8 74 -10 160 -51
245 -63 128 -221 255 -392 314 -118 41 -315 65 -423 53z m256 -45 c120 -21
320 -103 331 -136 2 -6 -25 -13 -67 -17 -84 -7 -221 -37 -342 -73 l-86 -26
-129 37 c-133 37 -281 66 -340 66 -22 0 -33 4 -31 12 11 32 207 115 323 137
70 12 270 13 341 0z m-504 -180 c113 -21 277 -65 291 -78 4 -5 -6 -14 -23 -21
-28 -12 -39 -11 -94 9 -85 32 -241 77 -314 91 -34 7 -59 16 -57 20 6 10 59 4
197 -21z m872 23 c3 -5 -40 -18 -95 -31 -55 -12 -146 -38 -202 -58 -136 -46
-140 -47 -173 -30 l-29 15 30 12 c57 23 256 70 353 84 53 8 100 14 104 15 4 1
9 -3 12 -7z m-917 -57 c50 -13 128 -38 174 -56 l82 -32 -27 -14 c-26 -13 -34
-11 -135 31 -59 25 -144 56 -189 68 -45 13 -82 27 -82 31 0 11 64 1 177 -28z
m943 28 c0 -5 -37 -18 -82 -31 -45 -12 -130 -43 -189 -68 -101 -42 -109 -44
-135 -31 l-27 14 82 32 c141 55 351 104 351 84z m-925 -82 c106 -43 155 -65
155 -72 0 -3 -16 -13 -36 -22 -129 -62 -332 -234 -379 -320 -11 -20 -22 -37
-26 -37 -12 0 -49 99 -60 157 -19 104 21 238 95 321 l37 40 72 -19 c39 -11
103 -33 142 -48z m1036 -56 c41 -84 54 -159 41 -233 -11 -61 -49 -162 -61
-162 -4 0 -15 17 -26 37 -46 86 -250 258 -379 320 -40 19 -45 28 -18 36 9 3
53 21 97 41 44 19 118 46 165 60 l85 24 33 -31 c18 -18 46 -59 63 -92z m-621
30 l25 -14 -37 -15 c-33 -14 -40 -14 -75 1 l-38 16 30 13 c39 17 64 17 95 -1z
m-113 -37 c41 -15 41 -22 4 -38 -24 -10 -35 -9 -62 5 -31 17 -32 18 -14 31 23
17 30 17 72 2z m198 -2 c18 -13 17 -14 -13 -30 -38 -19 -51 -20 -75 -1 -18 13
-17 14 10 29 35 19 54 20 78 2z m-274 -43 c16 -10 29 -20 28 -23 0 -3 -38 -29
-85 -59 -140 -91 -281 -243 -323 -348 -8 -18 -16 -33 -20 -33 -4 0 -24 18 -46
40 -45 46 -44 49 28 146 53 72 154 161 252 223 39 24 79 50 90 57 27 18 42 17
76 -3z m445 -54 c122 -80 254 -206 294 -282 l24 -47 -39 -40 c-21 -22 -42 -40
-46 -40 -4 0 -12 13 -17 30 -17 46 -85 141 -151 208 -62 63 -190 163 -235 184
-14 6 -26 14 -26 17 0 10 53 40 71 41 8 0 64 -32 125 -71z m-270 46 c19 -14
18 -15 -6 -35 -31 -24 -29 -24 -60 0 -25 19 -25 19 -5 34 26 20 46 20 71 1z
m-66 -65 c0 -4 -38 -37 -84 -74 -133 -107 -232 -232 -277 -350 l-21 -54 -44
26 c-24 15 -44 31 -44 37 1 22 42 101 84 159 54 76 152 168 254 240 76 54 77
54 104 38 16 -9 28 -19 28 -22z m331 -128 c94 -87 198 -237 199 -287 0 -6 -20
-22 -44 -37 l-45 -27 -16 49 c-35 107 -156 259 -285 361 -44 34 -80 65 -80 68
0 4 12 14 27 23 27 16 28 16 101 -34 40 -28 105 -80 143 -116z m-262 81 c154
-115 331 -347 331 -433 0 -39 -208 -90 -369 -90 -126 0 -308 35 -361 69 -36
24 52 189 164 309 55 59 183 172 195 172 2 0 20 -12 40 -27z"/>
<path d="M919 3759 c-133 -158 -160 -249 -95 -315 54 -54 110 -47 246 31 63
36 119 65 124 66 6 1 0 5 -14 9 -37 12 -159 11 -203 -1 -22 -6 -41 -8 -44 -6
-2 3 2 18 10 34 25 47 40 144 30 193 l-8 44 -46 -55z"/>
<path d="M4025 3766 c-9 -55 1 -117 26 -175 11 -24 17 -46 15 -48 -2 -3 -21 0
-43 6 -42 12 -143 14 -192 5 -31 -6 -30 -7 46 -51 134 -76 171 -93 210 -93 47
1 78 18 104 56 25 38 24 78 -5 139 -20 44 -139 205 -151 205 -2 0 -7 -20 -10
-44z"/>
<path d="M551 3414 c-79 -217 -79 -319 0 -377 29 -21 95 -33 134 -23 34 9 98
68 196 183 78 90 79 93 51 93 -48 0 -134 -30 -204 -71 -36 -21 -68 -39 -70
-39 -2 0 -2 31 0 70 5 77 -23 189 -56 230 l-19 23 -32 -89z"/>
<path d="M4397 3480 c-33 -48 -52 -123 -52 -212 0 -49 -1 -88 -2 -88 -1 0 -28
16 -60 35 -63 39 -168 75 -215 75 -29 0 -27 -2 60 -103 145 -166 172 -185 254
-174 51 7 87 32 111 78 32 61 8 207 -62 373 l-17 40 -17 -24z"/>
<path d="M245 2945 c-81 -267 -70 -421 34 -474 122 -63 190 -26 338 179 42 58
87 119 100 137 l24 32 -63 -15 c-77 -18 -166 -60 -236 -114 -29 -22 -55 -40
-57 -40 -3 0 -5 33 -5 73 0 83 -16 151 -53 222 -51 100 -51 100 -82 0z"/>
<path d="M4685 2965 c-47 -83 -65 -151 -65 -242 0 -40 -2 -73 -5 -73 -2 0 -28
18 -57 40 -70 54 -159 96 -236 114 l-63 15 24 -32 c13 -18 58 -79 100 -138
149 -208 229 -246 354 -170 90 56 95 211 17 467 -14 46 -27 84 -29 84 -2 0
-20 -29 -40 -65z"/>
<path d="M2453 2808 c-75 -111 -91 -201 -53 -287 24 -52 34 -50 19 3 -14 50 4
104 36 112 13 3 29 3 35 -1 19 -12 40 -71 40 -112 0 -44 12 -34 28 23 19 65
14 110 -18 191 -16 41 -30 88 -30 104 0 16 -3 29 -8 29 -4 0 -26 -28 -49 -62z"/>
<path d="M2462 2478 c4 -59 30 -59 32 0 1 34 -2 42 -17 42 -15 0 -18 -7 -15
-42z"/>
<path d="M2596 2433 c-34 -22 -47 -25 -89 -20 -33 4 -61 1 -84 -8 -20 -8 -50
-15 -68 -15 -42 0 -67 -26 -42 -45 21 -15 21 -25 0 -91 -15 -50 -15 -55 0 -72
21 -23 21 -41 1 -92 -12 -30 -13 -44 -5 -54 6 -7 8 -16 5 -19 -4 -4 0 -17 9
-30 13 -20 13 -27 1 -48 -16 -29 -18 -61 -4 -75 8 -8 8 -18 0 -35 -10 -21 -18
-24 -68 -25 -43 -1 -95 -15 -207 -56 -184 -68 -243 -81 -367 -81 l-98 0 -29
-76 c-28 -75 -47 -125 -260 -688 -61 -161 -113 -302 -116 -315 -3 -13 0 -32 9
-43 12 -17 26 -20 85 -20 55 0 72 -3 75 -15 3 -8 7 -25 11 -36 5 -21 1 -22
-74 -29 -89 -8 -171 0 -196 19 -15 11 -14 16 13 57 38 56 61 124 69 203 5 48
37 134 160 417 145 339 169 406 141 397 -16 -6 -6 14 -168 -347 -74 -165 -138
-301 -142 -301 -5 0 -8 9 -8 21 0 65 -115 342 -132 317 -16 -25 -80 -234 -94
-306 -8 -41 -14 -128 -14 -194 0 -110 -1 -120 -17 -113 -51 19 -189 46 -268
51 -92 6 -215 -7 -282 -30 l-36 -12 89 -58 c109 -71 251 -140 330 -161 37 -10
90 -15 144 -13 53 1 93 -2 107 -10 15 -8 81 -12 212 -12 l191 0 25 -52 c14
-28 25 -53 25 -53 0 -1 -37 -5 -82 -9 -108 -9 -206 -30 -289 -61 -71 -27 -191
-96 -196 -112 -4 -10 123 -42 250 -64 105 -18 290 -8 350 19 113 50 157 113
179 256 l12 76 348 0 348 0 0 -40 0 -41 153 3 152 3 1 40 0 40 350 0 c279 0
348 -3 346 -13 -6 -30 21 -151 44 -199 27 -55 68 -92 142 -126 42 -20 63 -22
202 -22 134 0 171 4 275 29 66 15 122 30 125 33 15 14 -133 96 -239 132 -66
23 -228 51 -293 51 l-37 0 26 60 26 60 203 0 c112 0 205 4 208 8 3 5 42 6 88
4 58 -3 104 1 148 12 80 21 222 90 336 164 l87 56 -36 12 c-67 23 -190 36
-282 30 -79 -5 -217 -32 -267 -51 -17 -7 -18 3 -18 113 0 66 -7 155 -15 199
-14 74 -72 262 -92 297 -16 29 -132 -245 -133 -313 -1 -24 -2 -24 -14 -9 -7
10 -73 151 -146 315 -73 164 -139 305 -146 313 -10 10 -17 11 -25 3 -11 -11
-5 -27 240 -591 39 -90 71 -176 71 -192 0 -75 45 -204 89 -253 15 -17 14 -20
-3 -32 -26 -19 -116 -29 -194 -21 -36 4 -69 9 -73 11 -4 3 -4 17 0 33 7 26 11
27 74 30 58 3 69 6 83 27 10 16 14 35 10 52 -4 16 -95 263 -204 551 l-197 522
-55 -6 c-103 -11 -210 13 -490 111 -65 23 -118 35 -140 33 l-35 -3 -2 45 c-1
25 -9 79 -18 119 -14 67 -14 76 0 83 12 7 13 13 4 29 -7 15 -7 24 2 35 9 11 9
17 -2 30 -8 10 -9 18 -2 22 14 9 14 67 1 120 -9 37 -8 44 7 56 14 10 16 19 10
42 -5 16 -9 38 -9 49 -1 30 -44 29 -90 -2z m-31 -48 c-18 -15 -38 -22 -50 -20
-11 3 -27 1 -35 -4 -12 -8 -12 -16 -3 -43 11 -29 15 -89 13 -168 -1 -14 -4
-108 -8 -210 l-7 -185 -12 105 c-15 128 -16 290 -2 306 7 9 7 20 -2 36 -11 21
-13 21 -19 4 -5 -16 -7 -17 -12 -4 -4 9 0 27 7 42 9 17 10 28 3 32 -6 4 -8 26
-5 53 l5 46 -19 -23 c-14 -18 -18 -39 -17 -85 0 -34 5 -70 10 -79 6 -12 5 -18
-3 -18 -8 0 -10 -15 -7 -45 5 -38 3 -44 -8 -34 -11 9 -14 7 -14 -9 0 -11 8
-22 20 -25 15 -4 20 -14 20 -38 0 -32 0 -32 -20 -14 -20 18 -20 18 -14 -16 3
-19 17 -44 30 -56 26 -24 30 -43 13 -60 -11 -11 -8 -67 6 -112 6 -18 5 -23 -5
-19 -14 4 -24 20 -35 52 -5 18 -6 18 -19 1 -18 -25 -38 -10 -35 29 1 17 -2 43
-6 59 -5 19 -2 35 10 53 16 24 16 27 0 44 -11 12 -15 26 -10 37 4 10 9 43 11
73 2 30 7 62 10 72 3 12 0 18 -10 18 -20 0 -20 27 -2 95 12 42 12 52 0 66 -21
23 -17 29 15 23 22 -5 37 0 57 15 22 18 35 20 74 15 28 -4 55 -2 66 5 34 19
40 11 9 -14z m-232 -697 c22 -7 56 -27 74 -45 l33 -34 0 -454 c0 -250 -4 -455
-8 -455 -5 0 -17 9 -28 21 -58 64 -188 109 -314 109 -112 0 -230 -30 -415
-104 l-140 -57 -30 38 c-16 21 -54 63 -84 95 -36 38 -52 63 -49 75 4 15 228
619 254 687 6 14 14 17 41 13 19 -4 81 -2 138 3 84 7 126 18 236 58 74 28 143
52 154 55 38 9 98 7 138 -5z m557 -23 c41 -15 105 -37 141 -51 79 -28 234 -49
295 -39 39 6 45 4 54 -17 6 -13 66 -174 134 -358 l124 -335 -56 -60 c-32 -33
-70 -77 -87 -97 l-30 -37 -110 45 c-60 24 -155 59 -210 77 -91 29 -112 32
-225 32 -145 0 -210 -18 -298 -85 -29 -22 -55 -40 -57 -40 -3 0 -4 204 -3 454
l3 454 25 28 c65 70 161 79 300 29z m-1545 -785 c3 -5 1 -10 -4 -10 -6 0 -11
5 -11 10 0 6 2 10 4 10 3 0 8 -4 11 -10z m894 -191 c67 -33 102 -59 173 -131
l89 -89 94 90 c68 65 114 99 167 125 156 77 233 69 549 -54 l107 -41 -15 -38
-15 -38 -146 38 c-197 50 -292 63 -378 49 -117 -19 -230 -77 -317 -164 l-47
-48 -73 67 c-134 123 -279 170 -448 145 -45 -6 -144 -29 -221 -51 -78 -22
-141 -38 -142 -37 -1 2 -9 19 -18 40 l-17 36 166 58 c321 112 347 114 492 43z
m1461 -15 c0 -12 -7 -27 -15 -34 -12 -10 -14 -4 -13 45 1 52 3 54 14 33 8 -13
13 -33 14 -44z m-2370 11 c0 -25 -4 -45 -10 -45 -11 0 -14 49 -4 74 10 26 14
18 14 -29z"/>
<path d="M2376 1904 c-3 -9 -3 -22 2 -29 5 -10 12 -6 24 16 16 28 16 29 -1 29
-11 0 -22 -7 -25 -16z"/>
<path d="M33 2269 c19 -266 79 -436 173 -491 79 -46 185 -31 249 36 48 50 72
112 129 346 l42 168 -37 -19 c-63 -32 -151 -122 -213 -217 -53 -83 -76 -103
-76 -69 0 25 -69 154 -108 203 -22 27 -69 70 -103 94 l-62 44 6 -95z"/>
<path d="M4910 2319 c-30 -21 -75 -63 -99 -91 -41 -50 -111 -178 -111 -205 0
-33 -22 -15 -66 53 -61 97 -130 173 -198 218 -30 20 -56 36 -59 36 -10 0 94
-385 118 -438 47 -102 94 -135 195 -136 112 -2 179 60 225 205 27 86 58 295
53 359 l-3 39 -55 -40z"/>
<path d="M683 1744 c-92 -157 -152 -306 -172 -433 -6 -35 -12 -66 -15 -68 -2
-2 -32 16 -67 42 -118 87 -286 150 -380 143 l-39 -3 63 -85 c177 -239 331
-344 454 -311 82 22 168 130 207 261 32 104 30 372 -2 495 -8 28 -9 27 -49
-41z"/>
<path d="M4261 1736 c-28 -193 -24 -347 14 -473 21 -69 89 -167 143 -206 58
-42 130 -44 216 -4 72 33 203 161 295 287 l62 85 -39 3 c-94 7 -274 -62 -390
-150 -30 -22 -55 -38 -57 -36 -1 1 -8 35 -14 73 -18 104 -55 205 -128 345 -87
168 -88 169 -102 76z"/>
</g>
</svg>
